<svg xmlns="http://www.w3.org/2000/svg" version="1.1" xmlns:xlink="http://www.w3.org/1999/xlink" xmlns:svgjs="http://svgjs.com/svgjs" width="1920" height="1080" preserveAspectRatio="none" viewBox="0 0 1920 1080">
    <g mask="url(&quot;#SvgjsMask1044&quot;)" fill="none">
        <rect width="1920" height="1080" x="0" y="0" fill="url(#SvgjsLinearGradient1045)"></rect>
        <path d="M343.6684452499058 920.6875602397839L194.65324688870984 682.2133929504607-43.820920400613375 831.2285913116566 105.19427796058255 1069.70275860098z" fill="rgba(28, 83, 142, 0.4)" class="triangle-float2"></path>
        <path d="M1177.786,594.75C1222.398,592.077,1247.938,549.26,1270.334,510.585C1292.805,471.781,1317.365,428.237,1297.485,388.044C1275.943,344.489,1226.28,320.401,1177.786,323.468C1133.615,326.262,1103.68,363.262,1081.724,401.691C1059.998,439.717,1044.296,483.75,1063.806,522.959C1085.245,566.045,1129.747,597.628,1177.786,594.75" fill="rgba(28, 83, 142, 0.4)" class="triangle-float3"></path>
        <path d="M1564.924221240423 724.2893853965617L1841.412612389333 783.0588071608499 1900.182034153621 506.5704160119401 1623.6936430047112 447.8009942476519z" fill="rgba(28, 83, 142, 0.4)" class="triangle-float1"></path>
        <path d="M832.93 990.37 a229.69 229.69 0 1 0 459.38 0 a229.69 229.69 0 1 0 -459.38 0z" fill="rgba(28, 83, 142, 0.4)" class="triangle-float1"></path>
        <path d="M423.18 141.38 a335.13 335.13 0 1 0 670.26 0 a335.13 335.13 0 1 0 -670.26 0z" fill="rgba(28, 83, 142, 0.4)" class="triangle-float1"></path>
        <path d="M-180.99 509.03 a299.18 299.18 0 1 0 598.36 0 a299.18 299.18 0 1 0 -598.36 0z" fill="rgba(28, 83, 142, 0.4)" class="triangle-float3"></path>
        <path d="M1466.72 581.41 a353.8 353.8 0 1 0 707.6 0 a353.8 353.8 0 1 0 -707.6 0z" fill="rgba(28, 83, 142, 0.4)" class="triangle-float1"></path>
        <path d="M1056.9297105592543 418.76069313277594L942.2275880378163 664.7401886771349 1188.2070835821753 779.442311198573 1302.9092061036133 533.462815654214z" fill="rgba(28, 83, 142, 0.4)" class="triangle-float2"></path>
        <path d="M1687.15 914.58 a199.41 199.41 0 1 0 398.82 0 a199.41 199.41 0 1 0 -398.82 0z" fill="rgba(28, 83, 142, 0.4)" class="triangle-float3"></path>
        <path d="M1345.7256765235768 990.6225185425129L1169.6781207754445 912.2410967449908 1091.2966989779225 1088.288652493123 1267.3442547260547 1166.670074290645z" fill="rgba(28, 83, 142, 0.4)" class="triangle-float3"></path>
    </g>
    <defs>
        <mask id="SvgjsMask1044">
            <rect width="1920" height="1080" fill="#ffffff"></rect>
        </mask>
        <linearGradient x1="10.94%" y1="-19.44%" x2="89.06%" y2="119.44%" gradientUnits="userSpaceOnUse" id="SvgjsLinearGradient1045">
            <stop stop-color="#0e2a47" offset="0"></stop>
            <stop stop-color="rgba(0, 26, 59, 1)" offset="1"></stop>
        </linearGradient>
        <style>
            @keyframes float1 {
                0%{transform: translate(0, 0)}
                50%{transform: translate(-10px, 0)}
                100%{transform: translate(0, 0)}
            }

            .triangle-float1 {
                animation: float1 5s infinite;
            }

            @keyframes float2 {
                0%{transform: translate(0, 0)}
                50%{transform: translate(-5px, -5px)}
                100%{transform: translate(0, 0)}
            }

            .triangle-float2 {
                animation: float2 4s infinite;
            }

            @keyframes float3 {
                0%{transform: translate(0, 0)}
                50%{transform: translate(0, -10px)}
                100%{transform: translate(0, 0)}
            }

            .triangle-float3 {
                animation: float3 6s infinite;
            }
        </style>
    </defs>
</svg>